<?xml version="1.0" encoding="utf-8"?>
<!-- Generator: Adobe Illustrator 25.4.0, SVG Export Plug-In . SVG Version: 6.00 Build 0)  -->
<svg version="1.1" id="Layer_1" xmlns="http://www.w3.org/2000/svg" xmlns:xlink="http://www.w3.org/1999/xlink" x="0px" y="0px"
	 viewBox="0 0 444 151.97" style="enable-background:new 0 0 444 151.97;" xml:space="preserve">
<style type="text/css">
	.st0{fill:#E4002B;}
	.st1{fill:#FFFFFF;}
</style>
<path class="st0" d="M29.95,75.73c-0.15,25.43,20.36,46.16,45.79,46.29c25.43,0.15,46.15-20.37,46.28-45.8
	c0.13-25.42-20.36-46.14-45.79-46.27c-0.08,0-0.16,0-0.26,0C50.67,29.94,30.08,50.39,29.95,75.73z"/>
<g>
	<path class="st1" d="M92.08,102.82h-32.2c-2.55,0-4.62-2.07-4.62-4.62V79.27h-3.86c-1.87,0-3.54-1.12-4.26-2.84
		c-0.72-1.73-0.33-3.7,0.99-5.03l24.57-24.69c0.86-0.86,2.05-1.36,3.27-1.36c1.22,0,2.41,0.5,3.27,1.36l24.57,24.69
		c1.32,1.33,1.71,3.3,0.99,5.03c-0.72,1.73-2.39,2.84-4.26,2.84H96.7V98.2C96.7,100.75,94.63,102.82,92.08,102.82z M75.98,49.35
		c-0.17,0-0.32,0.06-0.44,0.18L50.97,74.22c-0.18,0.18-0.23,0.44-0.13,0.67c0.1,0.23,0.32,0.38,0.57,0.38h5.86c1.1,0,2,0.9,2,2V98.2
		c0,0.34,0.28,0.62,0.62,0.62h32.2c0.34,0,0.62-0.28,0.62-0.62V77.27c0-1.1,0.9-2,2-2h5.86c0.25,0,0.47-0.15,0.57-0.38
		c0.1-0.23,0.04-0.49-0.13-0.67L76.42,49.53C76.3,49.41,76.15,49.35,75.98,49.35z"/>
</g>
<path class="st1" d="M162.28,96.92l-10.68-14.7h-5.4v14.7h-7.81v-40.2h16.08c9.13,0,14.76,4.88,14.76,12.98
	c0,5.92-3.62,10.22-9.3,11.83l11.77,15.39H162.28z M146.19,63.67v12h7.87c4.36,0,6.95-2.01,6.95-5.97c0-4.08-2.64-6.03-6.95-6.03
	H146.19z"/>
<path class="st1" d="M203.34,63.67h-20.33v9.3h17.86v6.83h-17.86v10.17h20.33v6.95h-28.2v-40.2h28.2V63.67z"/>
<path class="st1" d="M237.49,96.92l-3.85-10.4H218.6l-3.85,10.4h-8.16l15.79-40.2h7.64l15.85,40.2H237.49z M220.95,80.09h10.34
	l-5.17-14.01L220.95,80.09z"/>
<g>
	<path class="st1" d="M295.48,74.79c0.17,1.09,0.23,2.07,0.23,3.05c0,12.7-8.51,19.77-19.08,19.77c-11.21,0-20.12-8.33-20.12-20.81
		s8.45-20.81,20.12-20.81c7.36,0,14.89,3.85,17.93,11.67l-6.72,3.56c-2.24-5.35-5.98-8.05-11.21-8.05c-6.84,0-11.9,5.12-11.9,13.62
		c0,8.45,5.4,13.62,11.9,13.62c6.49,0,10.23-3.51,10.98-9.25h-10.98v-6.38H295.48z"/>
	<path class="st1" d="M316.63,66.63v7.93h-3.1c-3.45,0-5.92,2.47-5.92,6.84v15.52h-7.42v-29.6h7.42v4.25
		c1.67-3.45,4.37-4.94,7.47-4.94H316.63z"/>
	<path class="st1" d="M317.89,82.09c0-9.14,6.49-15.46,15.23-15.46c8.85,0,15.35,6.32,15.35,15.46c0,9.2-6.49,15.52-15.35,15.52
		C324.39,97.61,317.89,91.28,317.89,82.09z M340.88,82.09c0-5.63-3.33-8.85-7.76-8.85c-4.37,0-7.64,3.22-7.64,8.85
		c0,5.69,3.28,8.97,7.64,8.97C337.55,91.05,340.88,87.78,340.88,82.09z"/>
	<path class="st1" d="M352.61,85.02v-17.7h7.47v17.24c0,4.43,2.36,6.44,5.57,6.44c3.28,0,5.58-2.01,5.58-6.44V67.32h7.47v17.7
		c0,7.93-5.58,12.59-13.05,12.59C358.24,97.61,352.61,92.95,352.61,85.02z"/>
	<path class="st1" d="M413.99,82.09c0,8.91-5.63,15.52-13.28,15.52c-4.43,0-7.36-2.13-9.2-5.06v14.08h-7.41V67.32h7.41v4.25
		c1.84-2.87,4.77-4.94,9.2-4.94C408.36,66.63,413.99,73.24,413.99,82.09z M406.41,82.14c0-5.69-3.1-8.91-7.47-8.91
		c-4.42,0-7.53,3.22-7.53,8.91c0,5.69,3.1,8.85,7.53,8.85C403.3,91,406.41,87.83,406.41,82.14z"/>
</g>
</svg>
