<svg xmlns="http://www.w3.org/2000/svg" viewBox="0 0 313.41 111.47"><defs><style>.cls-1{fill:#1e5e82;}.cls-2{fill:#81ccea;}.cls-3{fill:#d86e89;}</style></defs><g id="Layer_2" data-name="Layer 2"><g id="Layer_1-2" data-name="Layer 1"><path class="cls-1" d="M44.54,3.16V47.38a.78.78,0,0,1-.89.89H38a.79.79,0,0,1-.83-.89V22.33c0-3.54.26-9,.51-12.52h-.25L27.27,47.13a1.28,1.28,0,0,1-1.4,1.14H20.43A1.32,1.32,0,0,1,19,47.13L8.79,9.81H8.6c.26,3.41.57,9,.57,12.52V47.38a.8.8,0,0,1-.88.89H2.66a.82.82,0,0,1-.83-.89V3.16A1.07,1.07,0,0,1,3,2h9.23A1.34,1.34,0,0,1,13.73,3.1L20,25.87c1.39,5.32,2.4,9,3.23,13.61h.19c.82-4.62,1.71-8.36,3.16-13.67L32.83,3.16A1.32,1.32,0,0,1,34.22,2h9.11A1.1,1.1,0,0,1,44.54,3.16Z"/><path class="cls-1" d="M78.85,24.17V47.38a.81.81,0,0,1-.89.89H72.39a.8.8,0,0,1-.88-.89V43.27a11.56,11.56,0,0,1-10,5.69c-6.58,0-10.75-4.3-10.75-10.56S54.93,28.4,64,27.77a53.49,53.49,0,0,1,7.15-.06V24.48c0-3.92-2.15-5.5-5.76-5.5s-4.93,1.33-5.82,3.79c-.25.7-.5.83-1.2.64L52.91,22c-.57-.19-.76-.51-.57-1,1-4.93,5.5-8.35,13.41-8.35C73.91,12.65,78.85,16.51,78.85,24.17ZM71.19,37v-4.3a54.18,54.18,0,0,0-6.51.12c-4.12.45-6.46,1.84-6.46,5.13,0,2.84,2,4.68,5.32,4.68C67.08,42.64,69.8,40.55,71.19,37Z"/><path class="cls-1" d="M93.65,25.87V47.38a.8.8,0,0,1-.88.89h-6c-.64,0-1-.32-1-.89V14.17a.78.78,0,0,1,.88-.82h5.89a.78.78,0,0,1,.88.82v4.24A12.69,12.69,0,0,1,104,12.65c6.65,0,10.25,4.81,10.25,11.9V47.38c0,.64-.31.89-.88.89h-6c-.63,0-.95-.32-.95-.89V25.87c0-3.79-1.77-6.07-5.32-6.07C97.7,19.8,94.92,22.27,93.65,25.87Z"/><path class="cls-1" d="M131.81,5.63v8h7c.5,0,.82.32.82,1v4.56c0,.63-.32.88-.82.88h-7V37.58c0,2.53,1.39,3.79,4.24,3.79h2.65a.78.78,0,0,1,.89.89v5.12a.78.78,0,0,1-.89.89h-3.92c-7.08,0-10.63-3.8-10.63-9.62V20h-4.36a.77.77,0,0,1-.89-.88V14.55c0-.63.32-1,.89-1h4.43v-8a.83.83,0,0,1,.88-.89h5.82A.8.8,0,0,1,131.81,5.63Z"/><path class="cls-1" d="M151.39,33.21v2c0,4.49,2.34,7.27,7.34,7.34,4.68,0,6.13-1.84,7.33-4.18.51-.82.83-.95,1.65-.57l4,2c.89.44.95.94.57,1.7-2.08,4.62-7,7.4-13.6,7.4-9.68,0-14.8-5.75-14.8-13.85v-8.6c0-7.91,4.93-13.86,14.68-13.86,9.36,0,14.1,6,14.1,13.73v5.31c0,1-.38,1.52-1.58,1.52Zm0-7V28h14V26.19c0-4.3-2.4-7.15-7-7.15S151.39,21.89,151.39,26.19Z"/><path class="cls-1" d="M186.52.89V47.38a.81.81,0,0,1-.89.89h-6c-.63,0-1-.32-1-.89V.89c0-.57.32-.89,1-.89h6A.81.81,0,0,1,186.52.89Z"/><path class="cls-1" d="M27.46,66.05h-7c2.41,1.58,4.43,4.74,4.43,9.55,0,7.09-4.36,11.45-11.83,11.45h-4c-2.85,0-4.12,1.46-4.12,3s1.27,3,4.12,3h8c8.1,0,11,4.18,11,8.73,0,5.32-4.05,9.68-14.18,9.68C4,111.47,0,107.36,0,102.05A8.23,8.23,0,0,1,4.87,94.2,5.34,5.34,0,0,1,2.59,90a5,5,0,0,1,3.67-4.56C2.91,83.57,1.08,80,1.08,75.35,1.08,68.07,5.5,63.71,13,63.71H27.46c.38,0,.57.13.57.69v.95C28,65.92,27.84,66.05,27.46,66.05ZM10.56,95.4c-6.38,0-8.16,3.1-8.16,6.39,0,4.56,3.48,7.34,11.39,7.34,8.16,0,11.83-3,11.83-7.53,0-3.16-1.77-6.2-8.6-6.2ZM13,66.05c-6,0-9.49,3.23-9.49,9.24s3.42,9.42,9.68,9.42c5.63,0,9.3-2.78,9.3-9.11C22.46,69.78,19.36,66.05,13,66.05Z"/><path class="cls-1" d="M49.17,63.84v1.32c0,.38-.13.57-.63.57H48c-5.12,0-8.6,3.42-10.5,7.66V97.68c0,.51-.32.51-.7.51h-1c-.38,0-.69,0-.69-.51V64.21c0-.5.31-.5.63-.5H36.9c.31,0,.63,0,.63.5L37.47,70a12.35,12.35,0,0,1,11.13-6.7C49,63.27,49.17,63.39,49.17,63.84Z"/><path class="cls-1" d="M79.35,75.79V86.1c0,7.78-4.62,12.72-12.84,12.72S53.67,93.88,53.67,86.1V75.79c0-7.78,4.61-12.71,12.84-12.71S79.35,68,79.35,75.79Zm-23.28.13V86c0,7.08,4,10.5,10.44,10.5S77,93.06,77,86V75.92c0-7.09-4-10.5-10.44-10.5S56.07,68.83,56.07,75.92Z"/><path class="cls-1" d="M87.65,88.13V64.28c0-.38.13-.57.7-.57h1c.57,0,.7.19.7.57v23.4c0,5.64,2.46,8.8,8,8.8,4.49,0,8.79-3.1,10.88-7.72V64.28c0-.38.13-.57.7-.57h1c.57,0,.69.19.69.57V97.62c0,.38-.12.57-.69.57h-1c-.57,0-.7-.19-.7-.57V92.56a13.32,13.32,0,0,1-11.2,6.26C91.07,98.82,87.65,94.33,87.65,88.13Z"/><path class="cls-1" d="M121.1,110.84a.47.47,0,0,1-.51-.51V64.21c0-.5.25-.5.63-.5h1.14c.26,0,.64,0,.64.5v4.62c1.64-3,5.25-5.75,10.62-5.75,7.53.06,12.15,4.93,12.15,12.71V86.1c0,7.78-4.62,12.66-12.15,12.72-5.37,0-9-2.72-10.62-5.82v17.33c0,.38-.19.51-.57.51ZM143.37,86V75.92c0-7.09-4-10.44-9.87-10.5C128.18,65.42,123,69,123,76v9.93c0,7,5.18,10.57,10.5,10.57C139.38,96.42,143.37,93.06,143.37,86Z"/><path class="cls-1" d="M310.65,81.79,272.48,18.52a12.46,12.46,0,0,0-21.32,0L227,57.29c-5-8.1-8.51-14-8.56-14.08a9.48,9.48,0,0,0-16.23,0L174.56,89a14.17,14.17,0,0,0,12.13,21.49H294.44a18.94,18.94,0,0,0,16.21-28.72Z"/><path class="cls-2" d="M210.31,42a6.09,6.09,0,0,0-5.26,3L177.41,90.74a10.84,10.84,0,0,0,9.28,16.44c8.79,0,10.81-3.19,35.53-42.3l2.8-4.44c-5.52-8.86-9.41-15.46-9.45-15.53A6.1,6.1,0,0,0,210.31,42Z"/><path class="cls-3" d="M196.91,107.18h97.53A15.6,15.6,0,0,0,307.8,83.51L269.63,20.24a9.13,9.13,0,0,0-15.63,0L228.4,61.32,225,66.66C209.19,91.73,202.34,102.56,196.91,107.18Z"/></g></g></svg>