<svg height="16" viewBox="0 0 16 16" width="16" xmlns="http://www.w3.org/2000/svg"><g fill="none" fill-rule="evenodd" stroke="#000" stroke-linecap="round" stroke-width=".512"><path d="m2.3444375 4.48266406c-.89629167.2561833-1.3444375.62079577-1.3444375 1.09383743 0 .70956248 1.02132178 1.08802879 2.33825001 1.02397508 1.3169282-.0640537 2.33824999-.35306248 2.33824999-1.17087499 0-.54520835-.68977084-.86085416-2.06931249-.94693752"/><path d="m9.75168879 4.25528907c-.98016415.49362501-1.17457693.95089585-.58323829 1.3718125.8870079.63137502 2.4301081.65674999 3.1861882.57156249.75608-.08518749 1.8944573-.50537497 1.3813914-1.34699997-.342044-.56108334-1.3170423-.88643752-2.924995-.97606253"/><path d="m7.29406251 5.97728909c-.42416674 1.12051066-.4970535 1.84048984-.21866027 2.15993748.27839323.31944766.86481897.20232266 1.75927726-.35137499"/><path d="m5.56687499 9.46028907 5.19731251.08692918c-.3854547 1.18008885-1.34803717 1.77013335-2.88774729 1.77013335-1.53971015 0-2.30956522-.6190208-2.30956522-1.85706253z" stroke-linejoin="round"/><path d="m2.74695256 6.59512282c.92933117 3.52539528 1.67564436 5.47075328 2.23893962 5.83607388.42382276.2748668 1.34079596.8507174 3.10337109.8507174 1.76257514 0 2.85215843-.7430558 3.19913633-1.1798612.4641219-.5842761.9646137-2.49398908 1.5014754-5.72913882"/><path d="m2.66520462 3.1042718c-1.47650522-.37921067-.05941131-2.39201148 4.67239475-2.6129041 4.73180603-.22089263 9.43393293 2.27592695 1.76743598 2.6129041-7.666497.33697712-4.81160138-1.90561859-.2935139-1.56746586"/><path d="m3.66961439 9.88415781c-1.24073068.58499869-2.01123905 1.40237539-2.01123905 2.30683049 0 1.7787131 2.97999271 3.2206449 6.65599999 3.2206449 3.67600727 0 6.65599997-1.4419318 6.65599997-3.2206449 0-.7101602-.4750244-1.3666358-1.2797139-1.8990918" transform="matrix(.99756405 -.06975647 .06975647 .99756405 -.862019 .610791)"/></g></svg>